<svg width="18" height="18" viewBox="0 0 18 18" fill="none" xmlns="http://www.w3.org/2000/svg">
<path d="M8.97952 3.00039C8.84185 3.00529 8.71076 3.06054 8.61111 3.15566L4.29861 7.28066C4.21747 7.35832 4.16142 7.45848 4.1377 7.56826C4.11397 7.67804 4.12365 7.79241 4.16548 7.89664C4.20732 8.00088 4.27939 8.0902 4.37243 8.15311C4.46547 8.21603 4.57521 8.24965 4.68753 8.24966H13.3125C13.4248 8.24965 13.5346 8.21603 13.6276 8.15311C13.7207 8.0902 13.7927 8.00088 13.8346 7.89664C13.8764 7.79241 13.8861 7.67804 13.8624 7.56826C13.8386 7.45848 13.7826 7.35832 13.7014 7.28066L9.38894 3.15566C9.33454 3.10373 9.27028 3.06323 9.19996 3.03656C9.12964 3.00989 9.05468 2.99759 8.97952 3.00039ZM9.00003 4.34072L11.9107 7.12466H6.08938L9.00003 4.34072ZM4.68753 9.74966C4.57521 9.74967 4.46547 9.78329 4.37243 9.8462C4.27939 9.90912 4.20732 9.99844 4.16548 10.1027C4.12365 10.2069 4.11397 10.3213 4.1377 10.4311C4.16142 10.5408 4.21747 10.641 4.29861 10.7187L8.61111 14.8437C8.71581 14.9438 8.85512 14.9997 9.00003 14.9997C9.14493 14.9997 9.28425 14.9438 9.38894 14.8437L13.7014 10.7187C13.7826 10.641 13.8386 10.5408 13.8624 10.4311C13.8861 10.3213 13.8764 10.2069 13.8346 10.1027C13.7927 9.99844 13.7207 9.90912 13.6276 9.8462C13.5346 9.78329 13.4248 9.74967 13.3125 9.74966H4.68753Z" fill="#344054"/>
</svg>
